PathFileType	4	(X/Y/Z)	 s09c0101.trc
DataRate	CameraRate	NumFrames	NumMarkers	Units	OrigDataRate	OrigDataStartFrame	OrigNumFrames
200	200	7	50	mm	200	1251	2000
Frame#	Time	racr			lacr			c7			jug			rlel			rdr			llel			ldr			s2			lic			ric			lasi			rasi			rpsi			lpsi			rgt			lgt			rth1			rth2			rth3			rth4			rlfc			rmfc			rsh1			rsh2			rsh3			rsh4			rlmal			rmmal			rcal			rtoe			rmt5			lth1			lth2			lth4			lth3			llfc			lmfc			llmal			lmmal			lcal			lmt5			lsh1			lsh2			lsh3			lsh4			ltoe			SBIKE			LBIKE			RBIKE			
		X1	Y1	Z1	X2	Y2	Z2	X3	Y3	Z3	X4	Y4	Z4	X5	Y5	Z5	X6	Y6	Z6	X7	Y7	Z7	X8	Y8	Z8	X9	Y9	Z9	X10	Y10	Z10	X11	Y11	Z11	X12	Y12	Z12	X13	Y13	Z13	X14	Y14	Z14	X15	Y15	Z15	X16	Y16	Z16	X17	Y17	Z17	X18	Y18	Z18	X19	Y19	Z19	X20	Y20	Z20	X21	Y21	Z21	X22	Y22	Z22	X23	Y23	Z23	X24	Y24	Z24	X25	Y25	Z25	X26	Y26	Z26	X27	Y27	Z27	X28	Y28	Z28	X29	Y29	Z29	X30	Y30	Z30	X31	Y31	Z31	X32	Y32	Z32	X33	Y33	Z33	X34	Y34	Z34	X35	Y35	Z35	X36	Y36	Z36	X37	Y37	Z37	X38	Y38	Z38	X39	Y39	Z39	X40	Y40	Z40	X41	Y41	Z41	X42	Y42	Z42	X43	Y43	Z43	X44	Y44	Z44	X45	Y45	Z45	X46	Y46	Z46	X47	Y47	Z47	X48	Y48	Z48	X49	Y49	Z49	X50	Y50	Z50	
1251	6.2550	548.266214	1262.836228	-120.141087	533.776454	1277.476745	-405.532449	510.509509	1292.829652	-251.030773	487.647124	1155.084474	-263.497202	555.755529	1062.805479	33.637309	700.235720	870.997551	-31.815690	479.734332	1027.396723	-531.189388	676.754296	891.282576	-440.174604	21.887279	1125.002519	-189.255306	130.954627	1136.828074	-360.963192	184.392697	1109.317344	-65.986322	178.247474	1078.129568	-344.620633	220.708339	1059.818233	-97.683244	62.512245	1152.686925	-134.998700	38.419513	1167.045990	-237.693866	154.187300	961.614953	-32.553950	108.702140	1026.632363	-400.365666	229.252895	848.761057	-45.603737	288.962919	785.906245	-60.196673	304.510829	699.264843	-73.057171	314.438358	800.478728	-82.547769	336.081144	611.594351	-109.176012	308.454596	589.911030	-202.906584	302.789511	516.631780	-71.844978	315.246611	428.661532	-86.998037	283.816192	346.878171	-83.448107	337.723163	429.635329	-120.154054	264.436566	247.514020	-81.868458	262.733068	256.041899	-157.277195	186.852944	223.288881	-115.459547	443.720575	161.870284	-129.863318	362.381463	161.249088	-61.731026	245.563089	973.154279	-405.444374	330.396427	968.057142	-398.145033	341.790807	998.976077	-378.956557	406.477089	919.619966	-404.890129	481.340456	851.941242	-389.303220	491.379873	827.032973	-288.389627	208.051236	607.725667	-406.075409	225.596521	604.550435	-335.049085	128.877569	613.611574	-367.381102	244.602111	484.487246	-428.153241	413.404393	785.318228	-411.577474	363.562547	714.032697	-405.061926	282.991385	676.675593	-406.469798	382.447492	694.001276	-377.896029	327.691854	445.404540	-358.474880	-64.611333	854.168330	-235.809557	20.859274	85.927596	-441.638152	21.186241	84.027285	-43.472217	
1252	6.2600	549.493986	1263.053343	-123.810227	533.036685	1277.108047	-409.309905	510.853094	1292.867281	-254.867064	487.565832	1155.154570	-266.917301	557.239297	1064.019617	31.564516	700.513849	871.108229	-32.078101	478.661781	1025.930117	-532.476111	676.720120	891.313543	-440.445340	22.333807	1125.598349	-188.354116	130.514531	1137.908790	-361.052092	186.129432	1109.478337	-66.584168	177.371359	1078.611067	-344.571473	221.562974	1059.821360	-98.920175	63.522613	1153.280765	-134.251754	38.765655	1167.583579	-236.959863	155.309436	961.794327	-31.666248	108.794972	1029.368457	-400.627029	227.809471	848.615127	-44.899528	286.522612	784.803605	-59.330884	300.184243	697.618737	-72.294713	312.128595	798.875912	-81.872695	330.291133	609.415983	-108.007123	302.866044	588.342347	-202.556545	296.373033	514.602163	-71.175189	308.395372	426.796800	-86.303269	276.455934	345.179087	-83.174032	330.324182	427.225507	-119.542040	256.519586	246.236525	-81.853004	255.167084	254.434844	-157.141616	179.218840	223.157245	-115.774051	434.766961	156.947730	-129.066378	352.708440	157.675152	-61.661536	246.305783	978.268078	-404.552000	331.102698	973.983330	-396.299323	342.029745	1004.888357	-376.247642	407.816598	926.660469	-402.712111	483.777212	859.820903	-387.513259	494.138412	834.634568	-286.766228	214.860352	610.320632	-406.292374	234.442721	608.616368	-334.504519	134.831415	614.411145	-367.724160	254.129373	488.522294	-428.305320	417.156275	792.554087	-410.187641	368.447244	720.178444	-404.506138	288.559103	681.569907	-406.074582	387.747385	700.411043	-377.388789	338.175493	451.733358	-358.512473	-64.618362	854.184155	-235.820685	20.855351	85.848054	-441.744441	21.188483	84.048700	-43.469496	
1253	6.2650	550.763308	1263.117161	-127.878998	532.303774	1276.629820	-413.056674	511.231344	1292.797044	-258.829574	487.626063	1155.088052	-270.311034	558.600671	1065.502444	29.693213	700.784281	871.200195	-32.429459	477.847808	1024.471194	-534.131359	676.745733	891.336265	-440.870467	22.674555	1126.504624	-187.552614	130.235531	1138.966648	-361.371757	187.678840	1109.815192	-67.341010	176.685032	1079.114945	-344.554755	222.542829	1060.248214	-100.061650	64.512143	1154.036140	-133.945253	36.932173	1169.322692	-235.924018	156.195100	962.270094	-30.907882	109.409703	1032.337278	-401.248069	226.286371	848.825545	-44.096754	284.058505	784.084697	-58.375514	296.315083	696.617843	-71.285937	309.863895	797.698057	-80.992574	325.040953	607.570773	-106.831303	298.118478	587.309849	-202.021660	290.243209	513.446553	-70.550628	301.647370	425.333743	-85.790304	269.028556	344.006789	-82.870903	323.789392	425.707449	-118.790466	248.366985	245.467922	-81.932694	247.708531	253.399188	-157.057876	171.135916	223.995587	-115.978087	424.030162	151.213681	-129.881842	342.943463	154.703380	-61.562837	247.045419	983.418209	-403.805646	331.719433	979.691557	-394.433646	342.063598	1010.352770	-373.782483	408.914212	933.596186	-401.748490	485.334071	866.398410	-387.103872	496.654443	841.703550	-285.140653	221.441682	612.200059	-406.387946	240.745918	610.602979	-334.370672	140.708155	614.248540	-368.009392	263.747951	491.963471	-428.548422	420.294383	798.913986	-409.022219	372.952964	725.878123	-403.872314	293.861289	685.460214	-405.731834	392.741881	706.092780	-377.249045	348.811521	457.726571	-358.532808	-64.658376	854.196885	-235.829282	20.861858	85.964354	-441.664159	21.174747	84.059143	-43.471730	
1254	6.2700	551.906631	1263.233767	-131.910150	531.695644	1275.932719	-416.477651	511.599387	1292.687843	-262.656715	487.919943	1154.932739	-273.434545	560.320314	1067.187116	28.332780	701.024084	871.283192	-32.885515	477.267649	1023.202116	-536.254952	676.869787	891.338210	-441.535307	22.932972	1127.217676	-187.251349	129.949694	1140.095907	-361.791210	189.124219	1110.374802	-68.061432	176.076126	1079.714045	-344.548903	223.012705	1060.656637	-101.587892	65.455072	1154.895245	-133.860557	37.453595	1170.247330	-235.786094	156.793212	963.112308	-30.330013	110.213644	1035.242609	-402.027901	224.810210	849.196728	-43.087333	281.734808	783.586583	-57.544594	292.666556	695.976296	-70.207710	307.736404	796.840010	-80.032086	320.369050	606.278514	-105.687637	294.150558	586.750272	-201.504243	284.707326	512.643828	-70.197763	295.229419	424.382394	-85.166306	261.588728	343.541605	-82.614408	317.555850	424.449510	-118.126349	240.162267	245.434429	-81.781443	242.523487	252.108377	-156.623959	162.836496	225.167295	-116.232917	413.814239	146.869446	-129.668775	332.784157	152.280755	-61.485951	247.749356	988.138372	-402.939262	332.332248	984.685079	-392.833521	342.177531	1015.387939	-371.553303	409.629367	939.405275	-399.501952	488.393632	873.549339	-384.897948	498.661165	848.504923	-283.844048	227.907943	613.307026	-406.407818	247.801638	612.739447	-333.741629	146.592105	613.067073	-368.408155	273.624284	494.659920	-428.762260	422.916460	804.401028	-408.016993	377.108286	730.408828	-403.284275	298.829085	688.425142	-405.407050	397.405670	710.759434	-376.894538	359.645130	463.220595	-358.581573	-64.711494	854.188870	-235.858456	20.835028	85.965012	-441.661969	21.173865	84.050778	-43.483843	
1255	6.2750	553.028795	1263.415531	-135.979851	530.916742	1275.100223	-419.972237	511.829564	1292.477741	-266.638297	488.107923	1154.669000	-276.636802	561.399930	1068.645601	26.408001	701.278774	871.276604	-33.386148	477.085419	1021.948944	-538.856337	677.103842	891.354977	-442.349342	23.463847	1128.262803	-187.636857	129.905130	1141.127110	-362.426861	190.392166	1111.184296	-68.910479	175.569772	1080.304155	-344.549820	223.196967	1061.293671	-102.910935	66.206705	1156.108970	-133.882477	38.210191	1171.271741	-235.972184	156.961203	964.396675	-29.882661	111.138872	1038.166862	-402.822302	223.291111	849.649248	-42.496345	279.533881	783.322571	-56.127273	289.347235	695.606640	-69.180508	305.845362	796.350364	-78.823070	316.351496	605.561613	-104.294502	291.086893	586.502145	-201.013895	279.363734	512.318525	-69.920033	289.192041	423.991078	-84.293346	254.285329	343.512216	-82.390786	311.680546	423.738726	-117.476467	231.873483	245.847084	-81.661137	234.538892	252.442855	-156.562079	155.967617	226.419722	-116.969550	403.510915	143.412249	-129.388561	322.430670	150.541054	-61.378071	248.371096	992.415863	-401.906904	332.672130	989.858306	-392.362429	342.419717	1019.927369	-369.638934	410.300345	944.808224	-398.718300	489.763466	879.271833	-383.677459	500.662230	854.317125	-282.798740	234.554934	613.905661	-406.632840	252.966806	613.366703	-333.494210	152.521951	610.944555	-368.790537	283.359890	496.756622	-429.068086	425.250591	809.006566	-406.981944	380.998635	733.861444	-402.661069	303.715252	690.173176	-404.993395	401.702129	714.612298	-376.422518	370.201098	468.129057	-358.703547	-64.746728	854.193326	-235.906909	20.813885	85.954621	-441.667063	21.151376	84.073636	-43.506442	
1256	6.2800	554.110091	1263.411697	-140.363017	530.137417	1274.168467	-423.473679	512.027317	1292.092032	-270.725512	488.281134	1154.219685	-279.775497	562.224954	1069.926458	24.336753	701.499515	871.294051	-33.862199	477.351597	1020.928222	-541.822035	677.308635	891.361270	-443.302796	24.007154	1129.358636	-188.295208	129.954945	1141.963415	-363.082114	191.471399	1112.289349	-69.756427	175.383993	1081.134116	-344.452088	223.577964	1061.874058	-103.854035	66.898202	1157.507240	-134.081008	38.779762	1172.571181	-236.318620	156.874753	965.762609	-29.918342	112.437739	1041.021355	-403.833053	221.741650	850.403702	-42.129966	277.526079	783.486484	-55.054959	286.388796	695.666140	-68.168154	304.191599	796.196449	-77.469330	312.924563	605.211009	-103.501727	288.910951	586.634806	-200.558465	274.937799	512.334403	-69.901949	283.592186	424.096644	-83.787480	247.298843	344.052862	-82.255312	306.156853	423.307411	-116.924838	223.520208	246.869809	-81.622187	226.590095	253.148681	-156.535375	146.701889	229.207445	-117.113893	393.183466	140.585531	-129.218704	312.207939	149.575359	-61.312897	248.975074	996.241263	-401.082417	333.170153	993.889490	-391.279470	342.825291	1023.389016	-367.758583	410.864453	949.114517	-397.406689	490.700191	884.056724	-382.607763	502.566184	858.473383	-282.213396	240.959485	613.295900	-406.789281	258.755265	613.390938	-333.483020	158.520392	607.931254	-369.125907	293.111591	497.987860	-429.237295	427.377212	812.564385	-405.899797	384.682432	736.438156	-402.041660	308.396681	691.126821	-404.613319	405.858104	717.473096	-375.988257	380.742803	472.325902	-358.866174	-64.751621	854.182415	-235.922924	20.809782	85.948364	-441.667440	21.164699	84.055109	-43.483052	
1257	6.2850	555.179973	1263.293389	-144.710027	529.298146	1272.952268	-426.810969	512.358909	1291.804941	-274.750897	488.078593	1153.966557	-282.892673	562.678705	1070.905344	21.991711	701.679940	871.294228	-34.496923	478.054969	1019.904032	-545.029685	677.499994	891.278865	-444.461472	22.252040	1130.813516	-188.061951	129.787357	1142.664217	-363.590450	192.388101	1113.678239	-70.685253	175.251952	1081.921525	-344.512584	223.762345	1062.990133	-104.567006	67.526674	1159.004228	-134.630378	39.257960	1173.871746	-236.849052	156.530859	967.322760	-30.243781	113.786252	1043.741864	-404.878409	220.366789	851.208693	-41.864709	275.668580	783.783716	-54.182397	283.912020	696.041269	-67.475285	302.771357	796.454015	-76.096851	310.670446	605.395258	-102.850561	287.282330	587.300082	-199.888468	271.106356	512.877572	-69.695206	278.142647	424.503085	-83.724100	240.729172	345.206657	-82.156388	301.587657	423.523145	-115.805192	215.466203	248.666537	-81.569920	218.850489	254.643907	-156.496674	136.398877	233.096128	-116.932311	382.788284	138.130449	-129.080097	302.210585	149.165979	-61.028005	249.518834	999.372243	-400.295320	333.683523	996.976874	-390.499801	343.265214	1026.306960	-366.753001	411.158906	952.631768	-397.311838	491.390067	887.651450	-381.727939	503.452537	863.322085	-280.909060	247.152249	611.811379	-406.851478	264.709510	612.282562	-333.301332	164.594451	603.835491	-369.599404	302.650098	498.308493	-429.205814	429.315752	815.072438	-405.020337	388.327292	738.047722	-401.653034	313.004343	690.961952	-404.405695	409.638474	719.574502	-374.688513	391.571945	476.382251	-359.336046	-64.785041	854.173718	-235.963937	20.816466	85.931840	-441.672862	21.157789	84.058184	-43.506806	
